<?xml version="1.0" encoding="UTF-8"?><svg xmlns="http://www.w3.org/2000/svg" viewBox="0 0 607.76 203.93"><defs><style>.d{letter-spacing:.49em;}.e{font-family:Montserrat-Regular, Montserrat;font-size:27.41px;}.e,.f{fill:#eb6242;}.g{letter-spacing:.49em;}.h{letter-spacing:.48em;}.i{letter-spacing:.5em;}.j{letter-spacing:.5em;}.k{letter-spacing:.49em;}</style></defs><g id="a"/><g id="b"><g id="c"><g><g><g><path class="f" d="M115.11,152.1s.05-.07,.07-.11c.05-.09,.09-.18,.13-.27-.04,.09-.08,.18-.13,.27-.02,.04-.04,.07-.07,.11Z"/><path class="f" d="M115.84,84.42c.02-.06,.04-.12,.06-.18-.02,.06-.04,.12-.06,.18Z"/><path class="f" d="M115.61,151.04c.03-.09,.07-.18,.1-.27,.03-.08,.05-.15,.08-.23-.03,.08-.06,.15-.08,.23-.03,.09-.06,.18-.1,.27Z"/><path class="f" d="M115.91,150.13c.02-.08,.04-.17,.07-.25,.02-.08,.04-.17,.06-.25l-.06,.25c-.02,.09-.04,.17-.06,.25Z"/><path class="f" d="M115.7,84.86s.01-.03,.02-.05c0,.02-.01,.03-.02,.05Z"/><path class="f" d="M107.57,40.85c1.5,.09,2.9,.55,4.11,1.27-1.22-.73-2.62-1.18-4.11-1.27h0Z"/><path class="f" d="M112.62,154.98c-.1,.08-.2,.15-.3,.22-.13,.09-.27,.18-.41,.26-.11,.07-.21,.14-.33,.2-.14,.08-.29,.15-.43,.22-.12,.06-.24,.12-.36,.17-.14,.07-.29,.12-.44,.18-.05,.02-.1,.04-.16,.06,.05-.02,.1-.04,.15-.06,.15-.06,.3-.11,.44-.18,.12-.05,.24-.11,.36-.17,.14-.07,.29-.14,.43-.22,.11-.06,.22-.13,.33-.2,.14-.09,.28-.17,.41-.27,.1-.07,.2-.15,.3-.22,.13-.1,.26-.2,.39-.3,.03-.03,.07-.06,.1-.09-.03,.03-.07,.06-.1,.09-.13,.11-.26,.21-.39,.31Z"/><path class="f" d="M114.28,153.36c.06-.08,.12-.15,.17-.23,.08-.1,.16-.21,.23-.32-.07,.11-.15,.21-.23,.32-.06,.08-.11,.15-.17,.23Z"/><path class="f" d="M1.48,152.66s.03,.05,.05,.08c.02,.03,.05,.06,.07,.1-.02-.03-.05-.06-.07-.1-.02-.02-.03-.05-.05-.08Z"/><path class="f" d="M.9,151.61s-.04-.09-.07-.14c.02,.05,.04,.09,.07,.14,.06,.13,.12,.26,.18,.38,.04,.08,.09,.16,.14,.24-.05-.08-.1-.16-.14-.24-.07-.13-.13-.25-.19-.38Z"/><path class="f" d="M.08,148.8s.01,.08,.02,.12c.02,.15,.04,.29,.07,.44-.02-.15-.05-.29-.07-.44,0-.04-.01-.08-.02-.12Z"/><path class="f" d="M3.25,154.67s-.09-.08-.14-.12c.05,.04,.09,.08,.14,.12,.13,.11,.26,.21,.39,.31,.04,.03,.07,.05,.11,.08-.04-.03-.07-.05-.11-.08-.13-.1-.26-.2-.39-.31Z"/><path class="f" d="M113.87,153.83l.03-.03s.05-.05,.07-.08c-.02,.03-.05,.05-.07,.08l-.03,.03Z"/><path class="f" d="M5.47,156.06c-.12-.05-.24-.11-.36-.17-.15-.07-.29-.14-.43-.22-.11-.06-.21-.13-.32-.2-.08-.05-.16-.1-.23-.15,.08,.05,.15,.1,.23,.15,.11,.07,.21,.14,.33,.2,.14,.08,.29,.15,.43,.22,.12,.06,.24,.12,.36,.17,.14,.06,.29,.12,.44,.18,.06,.02,.12,.04,.18,.07-.06-.02-.12-.04-.18-.07-.15-.05-.3-.11-.44-.18Z"/><polygon class="f" points="58.08 128.82 58.09 128.8 58.08 128.82 58.08 128.82"/><path class="f" d="M2.04,153.44s-.02-.02-.03-.03c0,.01,.02,.02,.03,.03,.1,.13,.21,.25,.32,.37,.05,.05,.1,.11,.14,.16-.05-.05-.1-.11-.14-.16-.11-.12-.22-.24-.32-.37Z"/><rect class="f" x="58.11" y="68.89" width=".08" height="0" transform="translate(-31.68 61.3) rotate(-45)"/><polygon class="f" points="58.13 128.76 58.18 128.82 58.13 128.76 58.13 128.76"/><polygon class="f" points="81.88 98.84 81.88 98.83 60.35 71.6 81.88 98.84"/><polygon class="f" points="34.38 98.83 34.38 98.83 47.22 82.59 34.38 98.83"/><polygon class="f" points="58.08 68.85 58.08 68.86 58.1 68.89 58.08 68.85"/><path class="f" d="M107.46,156.84c.1,0,.2-.02,.31-.03-.22,.02-.45,.03-.68,.03,.13,0,.24,0,.37,0Z"/><path class="f" d="M107.53,40.85h.04s-.07,0-.11,0c-.05,0-.09,0-.14,0h0c.06,0,.13,0,.2,.01Z"/><path class="f" d="M0,50v31.73c0,.45,.04,.9,.11,1.35V50c0-4.87,3.79-8.85,8.58-9.15C3.85,41.1,0,45.1,0,50Z"/><polygon class="f" points="58.18 68.85 58.13 68.92 81.77 98.84 58.13 128.76 58.18 128.82 58.18 128.82 81.88 98.84 60.35 71.6 58.18 68.85"/><path class="f" d="M116.15,50v33.07c.07-.44,.1-.89,.1-1.34v-31.73c0-4.91-3.85-8.9-8.68-9.15,1.5,.09,2.9,.55,4.11,1.27,2.68,1.6,4.47,4.52,4.47,7.87Z"/><polygon class="f" points="34.48 98.84 58.13 68.92 58.13 68.92 58.13 68.92 58.1 68.89 58.08 68.86 47.22 82.59 34.38 98.83 58.08 128.82 58.09 128.8 58.13 128.76 58.13 128.76 58.13 128.76 34.48 98.84"/><path class="f" d="M9.17,156.84c-.23,0-.45-.02-.68-.03,.1,0,.2,.02,.31,.03,.13,0,.24,0,.37,0Z"/><path class="f" d="M8.94,40.84s-.09,0-.14,0c-.04,0-.07,0-.11,.01h.05c.07,0,.13-.01,.19-.02h.01Z"/><path class="f" d="M1.6,152.83c.07,.1,.14,.2,.21,.29,.07,.09,.14,.19,.21,.28-.07-.09-.14-.18-.21-.28-.07-.1-.14-.19-.21-.29Z"/><path class="f" d="M6.09,156.3c.07,.03,.14,.06,.21,.08,.11,.03,.21,.06,.32,.09-.11-.03-.21-.06-.32-.09-.07-.02-.14-.05-.21-.08Z"/><path class="f" d="M109.61,156.48c.12-.03,.23-.07,.35-.1,.08-.03,.16-.06,.23-.09-.08,.03-.16,.06-.24,.09-.12,.04-.23,.07-.35,.1Z"/><path class="f" d="M3.75,155.06c.06,.05,.13,.1,.19,.14,.06,.04,.12,.08,.18,.11-.06-.04-.12-.07-.18-.12-.07-.05-.13-.1-.19-.14Z"/><path class="f" d="M2.62,154.08s-.07-.08-.11-.12c.04,.04,.07,.08,.11,.12,.12,.12,.24,.22,.36,.34,.05,.04,.09,.08,.14,.12-.05-.04-.09-.08-.14-.13-.12-.11-.24-.22-.36-.34Z"/><path class="f" d="M.55,150.77c-.05-.13-.1-.27-.14-.4-.05-.16-.08-.32-.12-.49-.03-.13-.07-.25-.1-.38,0-.05-.01-.09-.02-.14,0,.05,.01,.1,.02,.14,.03,.13,.07,.25,.09,.38,.04,.16,.08,.33,.13,.49,.04,.14,.1,.27,.14,.41,.05,.14,.1,.29,.16,.43,.04,.09,.08,.18,.13,.27-.04-.09-.09-.18-.13-.27-.06-.14-.11-.28-.16-.43Z"/><polygon class="f" points="116.15 83.08 116.15 83.08 116.15 83.07 116.15 83.08 116.15 83.08"/><path class="f" d="M9.17,40.83c-.08,0-.16,0-.23,.01,.08,0,.15,0,.23,0-.15,0-.29,.01-.43,.02h-.05C3.9,41.16,.11,45.13,.11,50v33.08c.24,1.57,.87,3.07,1.87,4.34l9.03,11.42L1.98,110.26C.7,111.88,0,113.88,0,115.94v31.73c0,.18,.02,.35,.03,.53,0,.13,0,.26,.02,.39,0,.07,.02,.13,.03,.2,0,.04,.01,.08,.02,.12,.02,.15,.04,.29,.07,.44,0,.05,.01,.09,.02,.14,.03,.13,.06,.25,.1,.38,.04,.16,.08,.33,.12,.49,.04,.14,.1,.27,.14,.4,.05,.14,.1,.29,.16,.43,.04,.09,.08,.18,.13,.27,.02,.05,.04,.09,.07,.14,.06,.13,.12,.26,.19,.38,.04,.08,.09,.16,.14,.24,.03,.05,.06,.11,.09,.16,.05,.09,.11,.18,.16,.27,.02,.03,.03,.05,.05,.08,.02,.03,.05,.06,.07,.1,.07,.1,.14,.2,.21,.29,.07,.09,.14,.19,.21,.28,0,.01,.02,.02,.03,.03,.1,.13,.21,.25,.32,.37,.05,.05,.1,.11,.14,.16,.04,.04,.07,.08,.11,.12,.12,.12,.24,.23,.36,.34,.05,.04,.09,.08,.14,.13,.05,.04,.09,.08,.14,.12,.13,.11,.26,.21,.39,.31,.04,.03,.07,.05,.11,.08,.06,.05,.13,.1,.19,.14,.06,.04,.12,.08,.18,.12,.08,.05,.15,.1,.23,.15,.11,.07,.21,.14,.32,.2,.14,.08,.28,.15,.43,.22,.12,.06,.24,.12,.36,.17,.14,.07,.29,.12,.44,.18,.06,.03,.12,.05,.18,.07,.07,.03,.14,.05,.21,.08,.1,.03,.21,.06,.32,.09,.04,.01,.08,.02,.13,.04,.14,.04,.28,.08,.43,.11,.14,.03,.29,.06,.43,.08,.15,.03,.31,.05,.47,.07,.14,.02,.28,.03,.43,.04,.22,.02,.44,.03,.67,.03H107.09c.22,0,.45-.02,.67-.03,.14-.01,.29-.02,.43-.04,.15-.02,.31-.04,.47-.07,.14-.02,.29-.05,.43-.08,.15-.03,.29-.07,.43-.11,.03,0,.06-.02,.09-.03,.12-.03,.23-.06,.35-.1,.08-.03,.16-.06,.24-.09,.05-.02,.1-.04,.16-.06,.15-.05,.3-.11,.44-.18,.12-.05,.24-.11,.36-.17,.14-.07,.29-.14,.43-.22,.12-.06,.22-.13,.33-.2,.14-.08,.28-.17,.41-.26,.1-.07,.2-.15,.3-.22,.13-.1,.26-.2,.39-.31,.03-.03,.07-.06,.1-.09,.06-.05,.12-.11,.18-.16,.12-.11,.24-.22,.36-.34,.08-.08,.15-.17,.23-.25l.03-.03s.05-.05,.07-.08c.09-.09,.17-.19,.25-.29,.02-.03,.04-.05,.06-.08,.06-.08,.11-.15,.17-.23,.08-.1,.16-.21,.23-.32,.02-.02,.03-.05,.05-.07,.07-.11,.14-.23,.21-.34,.06-.1,.12-.19,.17-.29,.02-.04,.05-.07,.07-.11,.05-.09,.09-.18,.13-.27,.02-.04,.04-.08,.05-.11,.06-.14,.13-.27,.19-.41,.02-.05,.04-.11,.06-.16,.03-.09,.06-.18,.1-.27,.03-.07,.06-.15,.08-.23,.02-.06,.04-.11,.06-.17,.02-.08,.04-.16,.06-.23,.02-.08,.04-.17,.06-.25l.06-.25s.02-.09,.03-.13c.04-.19,.06-.39,.09-.58,.01-.11,.04-.21,.05-.32,.02-.23,.03-.47,.04-.71,0-.07,.01-.14,.01-.22v-31.73c0-.65-.08-1.28-.21-1.91-.29-1.37-.89-2.66-1.77-3.78l-9.03-11.43,9.03-11.42c.61-.78,1.09-1.64,1.42-2.56,0-.02,.01-.03,.02-.05,.05-.13,.08-.26,.12-.39,.02-.06,.04-.12,.06-.18,.11-.38,.19-.77,.25-1.16V50c0-3.35-1.79-6.27-4.46-7.87-1.22-.73-2.61-1.18-4.11-1.27h-.05c-.15-.01-.29-.03-.44-.03,.08,0,.16,0,.23,0-.08,0-.15-.01-.23-.01H9.17Zm9.17,97.68v-19.38l4.35-5.5,19.66,24.88H18.34Zm79.57-19.38v19.38h-24.01l19.66-24.88,4.35,5.5Zm-16.04-20.29h0l-23.7,29.99h0l-.05-.07-.03,.04-.02,.02h0l-23.7-29.99h0l12.84-16.25,10.85-13.73h0l.02,.03,.03,.03,.05-.06h0l2.17,2.75,21.53,27.23Zm16.04-39.67v19.38l-4.35,5.5-19.66-24.88h24.01Zm-55.56,0l-19.66,24.88-4.35-5.5v-19.38h24.01Z"/><path class="f" d="M1.23,152.23c.03,.05,.06,.11,.09,.16,.06,.09,.11,.18,.16,.26-.05-.09-.11-.18-.16-.27-.03-.05-.06-.11-.09-.16Z"/><path class="f" d="M113.96,153.72c.09-.09,.17-.19,.25-.29,.02-.03,.04-.05,.06-.08-.02,.03-.04,.05-.06,.08-.08,.1-.17,.19-.25,.29Z"/><path class="f" d="M.03,148.21c0,.13,0,.26,.02,.39,0,.07,.02,.13,.03,.2-.01-.07-.02-.13-.03-.2-.01-.13-.01-.26-.02-.39Z"/><path class="f" d="M116.16,148.92c-.03,.19-.05,.39-.09,.58,0,.04-.02,.09-.03,.13,.01-.04,.02-.09,.03-.13,.04-.19,.06-.38,.09-.58,.02-.1,.04-.21,.05-.32,.02-.24,.03-.47,.03-.71,0,.24-.01,.48-.04,.71-.01,.11-.03,.21-.05,.32Z"/><path class="f" d="M115.36,151.61s-.04,.08-.05,.11c.02-.04,.04-.08,.06-.11,.07-.14,.13-.27,.19-.41,.02-.05,.04-.11,.06-.16-.02,.05-.04,.11-.06,.16-.06,.14-.13,.27-.19,.41Z"/><path class="f" d="M113.28,154.42c-.06,.05-.12,.11-.18,.16,.06-.05,.12-.11,.18-.16,.12-.12,.24-.22,.36-.34,.08-.08,.15-.17,.23-.25-.07,.08-.15,.17-.23,.25-.11,.12-.24,.23-.36,.34Z"/><path class="f" d="M115.79,150.54c.02-.06,.05-.11,.06-.17,.02-.08,.04-.16,.06-.23-.02,.08-.04,.16-.06,.23-.02,.06-.04,.12-.06,.17Z"/><path class="f" d="M114.73,152.74s-.03,.05-.05,.07c.02-.02,.04-.05,.05-.07,.07-.11,.14-.22,.21-.34,.06-.1,.11-.2,.17-.29-.06,.1-.11,.19-.17,.29-.07,.11-.13,.23-.21,.34Z"/><path class="f" d="M107.53,40.85c-.07,0-.13,0-.2-.01h0c-.08,0-.15,0-.23,0,.15,0,.29,.01,.44,.02Z"/><path class="f" d="M105.25,98.83l9.03-11.42c.61-.78,1.09-1.64,1.42-2.56-.33,.92-.81,1.78-1.42,2.56l-9.03,11.42,9.03,11.43c.88,1.11,1.48,2.41,1.77,3.78-.29-1.37-.88-2.66-1.77-3.78l-9.03-11.43Z"/><path class="f" d="M115.72,84.81c.05-.13,.08-.26,.12-.39-.04,.13-.08,.26-.12,.39Z"/><path class="f" d="M115.9,84.24c.11-.38,.19-.77,.25-1.16h0c-.06,.39-.14,.78-.25,1.16Z"/><polygon class="f" points="58.18 128.82 58.18 128.82 81.88 98.84 81.88 98.84 58.18 128.82 58.18 128.82"/><polygon class="f" points="58.18 68.85 58.18 68.85 60.35 71.6 58.18 68.85"/><path class="f" d="M111.68,42.13c2.68,1.6,4.46,4.52,4.46,7.87v33.08h0V50c0-3.35-1.79-6.27-4.47-7.87Z"/><polygon class="f" points="58.09 128.8 58.13 128.76 58.13 128.76 58.09 128.8"/><polygon class="f" points="58.13 68.92 58.1 68.89 58.13 68.92 58.13 68.92"/><rect class="f" x="46.23" y="94.72" width="0" height="38.22" transform="translate(-60.62 53.18) rotate(-38.32)"/><polygon class="f" points="58.08 68.85 47.22 82.59 58.08 68.86 58.08 68.85"/><path class="f" d="M8.94,40.84h-.01c-.06,0-.13,0-.19,.01,.14,0,.29-.02,.43-.02-.08,0-.15,0-.23,0Z"/></g><g><path class="f" d="M340.05,69.51c-9.24,0-16.14,3.28-20.69,9.83-4.55,6.55-6.83,15.21-6.83,25.96v48.21h-31.03V42.21h31.03v14.69c4-4.55,9-8.41,15-11.59,6-3.17,12.1-4.83,18.31-4.97l.21,29.17h-6Z"/><path class="f" d="M429.63,40.34c13.51,0,25.31,5.28,35.38,15.83,10.07,10.55,15.1,24.1,15.1,40.65s-5.17,30.41-15.52,41.59c-10.34,11.17-22.1,16.76-35.27,16.76s-24.1-5.45-32.79-16.34v14.69h-31.03V0h31.03V54.62c8.55-9.52,19.58-14.28,33.1-14.28Zm-33.52,57.62c0,9.04,2.52,16.42,7.55,22.14,5.03,5.73,11.14,8.59,18.31,8.59s13.45-2.86,18.83-8.59c5.38-5.72,8.07-13.07,8.07-22.03s-2.62-16.48-7.86-22.55c-5.24-6.07-11.52-9.1-18.83-9.1s-13.48,3-18.52,9c-5.04,6-7.55,13.52-7.55,22.55Z"/><path class="f" d="M251.09,137.37c-12.55,11.86-27.28,17.79-44.17,17.79s-30.86-5.2-41.89-15.62c-11.04-10.41-16.55-24.38-16.55-41.89s5.62-31.45,16.86-41.79c11.24-10.34,24.52-15.52,39.83-15.52s28.31,4.62,39,13.86c10.69,9.24,16.03,21.93,16.03,38.07v16.55h-81.1c.96,6.07,4.14,11.04,9.52,14.9,5.38,3.86,11.45,5.79,18.21,5.79,10.89,0,19.86-3.65,26.9-10.97l17.38,18.83Zm-29.79-66c-4.28-3.58-9.49-5.38-15.62-5.38s-11.76,1.86-16.86,5.59c-5.11,3.72-8.07,8.76-8.9,15.1h48.83c-.69-6.62-3.17-11.72-7.45-15.31Z"/><path class="f" d="M598.66,137.37c-12.55,11.86-27.28,17.79-44.17,17.79s-30.86-5.2-41.89-15.62c-11.04-10.41-16.55-24.38-16.55-41.89s5.62-31.45,16.86-41.79c11.24-10.34,24.52-15.52,39.83-15.52s28.31,4.62,39,13.86c10.69,9.24,16.03,21.93,16.03,38.07v16.55h-81.1c.96,6.07,4.14,11.04,9.52,14.9,5.38,3.86,11.45,5.79,18.21,5.79,10.89,0,19.86-3.65,26.9-10.97l17.38,18.83Zm-29.79-66c-4.28-3.58-9.49-5.38-15.62-5.38s-11.76,1.86-16.86,5.59c-5.11,3.72-8.07,8.76-8.9,15.1h48.83c-.69-6.62-3.17-11.72-7.45-15.31Z"/></g></g><text class="e" transform="translate(0 196.75)"><tspan class="h" x="0" y="0">C</tspan><tspan class="j" x="33" y="0">ON</tspan><tspan class="k" x="105.68" y="0">S</tspan><tspan class="j" x="135.97" y="0">TR</tspan><tspan class="d" x="198.92" y="0">U</tspan><tspan class="g" x="233.95" y="0">T</tspan><tspan class="i" x="263.11" y="0">ORA</tspan></text></g></g></g></svg>