<?xml version="1.0" encoding="UTF-8"?><svg xmlns="http://www.w3.org/2000/svg" viewBox="0 0 323.9 323.25"><defs><style>.d{fill:none;stroke:#1a1d3a;stroke-miterlimit:10;}</style></defs><g id="a"/><g id="b"><g id="c"><path class="d" d="M25.95,.5c-.22,0-.43,.01-.63,.03,.21,0,.42-.02,.63-.02-.41,0-.81,.04-1.21,.06h-.13C11.31,1.41,.79,12.45,.79,25.98V117.86c.65,4.37,2.42,8.54,5.19,12.06l25.07,31.71-25.07,31.74c-3.56,4.51-5.48,10.06-5.48,15.79v88.14c0,.5,.04,.99,.07,1.48,.02,.36,.02,.74,.06,1.1,.02,.19,.05,.37,.08,.55,.02,.11,.03,.22,.05,.33,.06,.41,.12,.82,.18,1.22,.02,.13,.03,.26,.06,.39,.07,.36,.18,.7,.26,1.06,.11,.45,.21,.91,.35,1.35,.12,.38,.27,.75,.4,1.12,.14,.4,.27,.8,.44,1.19,.11,.25,.23,.5,.35,.75,.06,.13,.12,.26,.18,.39,.17,.37,.32,.72,.52,1.07,.12,.23,.26,.45,.39,.68,.09,.15,.17,.3,.26,.45,.15,.25,.3,.49,.45,.74,.04,.07,.09,.14,.13,.21,.06,.09,.13,.18,.19,.27,.19,.27,.39,.55,.59,.82,.19,.26,.38,.52,.57,.77,.02,.03,.05,.07,.07,.1,.29,.35,.59,.68,.9,1.02,.13,.15,.26,.29,.4,.44,.1,.11,.2,.23,.3,.33,.32,.33,.66,.63,1,.94,.13,.12,.26,.23,.38,.35,.13,.12,.25,.23,.39,.34,.35,.3,.72,.58,1.08,.85,.1,.08,.2,.15,.29,.22,.18,.14,.35,.27,.53,.4,.16,.11,.33,.21,.5,.32,.22,.14,.43,.28,.65,.41,.3,.2,.59,.38,.9,.55,.4,.23,.79,.43,1.2,.62,.32,.17,.65,.33,.99,.47,.4,.18,.81,.33,1.22,.49,.17,.07,.34,.13,.5,.19,.19,.07,.38,.15,.58,.21,.29,.1,.59,.18,.88,.26,.12,.03,.23,.07,.35,.1,.4,.11,.78,.21,1.19,.3,.4,.09,.79,.17,1.2,.23,.43,.08,.87,.15,1.29,.2,.4,.05,.79,.08,1.19,.11,.62,.05,1.23,.09,1.87,.09H297.95c.62,0,1.25-.05,1.87-.09,.4-.03,.79-.06,1.19-.11,.43-.05,.85-.12,1.29-.2,.4-.06,.81-.14,1.2-.23,.41-.09,.79-.2,1.19-.3,.09-.02,.17-.05,.26-.07,.33-.09,.65-.18,.97-.28,.22-.07,.44-.16,.65-.24,.14-.06,.29-.11,.43-.16,.41-.15,.82-.3,1.22-.49,.33-.14,.65-.3,.99-.47,.4-.2,.81-.4,1.19-.62,.32-.17,.61-.35,.91-.55,.38-.23,.78-.47,1.14-.73,.29-.2,.56-.41,.84-.62,.37-.27,.73-.55,1.08-.85,.09-.08,.19-.16,.28-.25,.16-.15,.33-.3,.49-.44,.34-.31,.68-.61,.99-.94,.22-.22,.42-.46,.63-.69,.02-.03,.05-.05,.07-.08,.07-.07,.13-.15,.2-.22,.24-.26,.48-.52,.7-.8,.06-.07,.11-.15,.17-.22,.16-.21,.32-.43,.47-.64,.22-.29,.44-.58,.65-.88,.05-.07,.1-.13,.14-.19,.21-.31,.39-.63,.58-.95,.16-.27,.32-.54,.48-.81,.06-.1,.13-.21,.18-.31,.13-.25,.25-.5,.36-.75,.05-.11,.1-.21,.15-.32,.18-.38,.37-.75,.53-1.13,.06-.15,.11-.3,.17-.45,.09-.25,.18-.49,.26-.74,.08-.21,.15-.42,.23-.63,.06-.16,.12-.32,.17-.48,.07-.21,.11-.43,.17-.65,.06-.24,.12-.47,.17-.71,.06-.23,.12-.46,.18-.68,.03-.12,.07-.24,.09-.37,.11-.53,.17-1.07,.25-1.61,.04-.3,.1-.59,.13-.88,.07-.65,.08-1.31,.1-1.97,0-.2,.03-.4,.03-.6v-88.14c0-1.79-.21-3.56-.58-5.3-.81-3.8-2.46-7.4-4.91-10.49l-25.07-31.74,25.07-31.72c1.7-2.16,3.02-4.56,3.94-7.1,.02-.05,.04-.09,.06-.14,.13-.36,.23-.72,.34-1.08,.05-.17,.11-.33,.16-.5,.3-1.06,.53-2.14,.7-3.23V25.98c0-9.3-4.97-17.43-12.4-21.87-3.38-2.02-7.26-3.28-11.42-3.54h-.13c-.4-.03-.81-.07-1.22-.07,.22,0,.43,.01,.65,.02-.22-.01-.43-.03-.65-.03H25.95Zm25.48,271.32v-53.83l12.09-15.28,54.61,69.11H51.44Zm221.03-53.83v53.83h-66.69l54.61-69.11,12.09,15.28Zm-44.54-56.37h0l-65.82,83.3h0l-.14-.18-.09,.12-.05,.06h0l-65.82-83.3h0l35.67-45.14,30.15-38.14h0l.07,.09,.07,.09,.15-.18h0l6.03,7.63,59.8,75.64Zm44.54-110.19v53.83l-12.09,15.28-54.61-69.11h66.69Zm-154.33,0L63.52,120.55l-12.09-15.28V51.44H118.13Z"/></g></g></svg>