<?xml version="1.0" encoding="UTF-8"?><svg xmlns="http://www.w3.org/2000/svg" viewBox="0 0 32.01 31.94"><defs><style>.d{fill:#eb6242;}</style></defs><g id="a"/><g id="b"><g id="c"><path class="d" d="M2.52,0s-.04,0-.06,0c.02,0,.04,0,.06,0-.04,0-.08,0-.12,0h-.01C1.07,.09,.03,1.18,.03,2.53V11.63c.06,.43,.24,.85,.51,1.2l2.49,3.14-2.49,3.15c-.35,.45-.54,1-.54,1.56v8.74s0,.1,0,.15c0,.04,0,.07,0,.11,0,.02,0,.04,0,.05v.03s.02,.08,.02,.12c0,.01,0,.03,0,.04,0,.04,.02,.07,.03,.1,.01,.04,.02,.09,.03,.13,.01,.04,.03,.07,.04,.11,.01,.04,.03,.08,.04,.12,.01,.03,.02,.05,.03,.07l.02,.04s.03,.07,.05,.11c.01,.02,.03,.04,.04,.07l.03,.04s.03,.05,.04,.07v.02l.03,.03s.04,.05,.06,.08c.02,.03,.04,.05,.06,.08h0s.06,.08,.09,.11l.04,.04s.02,.02,.03,.03c.03,.03,.07,.06,.1,.09l.04,.03s.02,.02,.04,.03c.03,.03,.07,.06,.11,.08l.03,.02s.03,.03,.05,.04c.02,.01,.03,.02,.05,.03,.02,.01,.04,.03,.06,.04,.03,.02,.06,.04,.09,.05,.04,.02,.08,.04,.12,.06,.03,.02,.06,.03,.1,.05,.04,.02,.08,.03,.12,.05,.02,0,.03,.01,.05,.02,.02,0,.04,.01,.06,.02,.03,0,.06,.02,.09,.03h.03s.08,.03,.12,.04c.04,0,.08,.02,.12,.02,.04,0,.09,.02,.13,.02,.04,0,.08,0,.12,.01,.06,0,.12,0,.19,0H29.49c.06,0,.12,0,.19,0,.04,0,.08,0,.12-.01,.04,0,.08-.01,.13-.02,.04,0,.08-.01,.12-.02,.04,0,.08-.02,.12-.03h.03s.06-.02,.1-.04c.02,0,.04-.02,.06-.02l.04-.02s.08-.03,.12-.05c.03-.01,.06-.03,.1-.05,.04-.02,.08-.04,.12-.06,.03-.02,.06-.03,.09-.05,.04-.02,.08-.05,.11-.07,.03-.02,.06-.04,.08-.06,.04-.03,.07-.05,.11-.08l.03-.02,.05-.04s.07-.06,.1-.09c.02-.02,.04-.05,.06-.07h0l.02-.03s.05-.05,.07-.08l.02-.02,.05-.06s.04-.06,.06-.09v-.02s.05-.06,.07-.09c.02-.03,.03-.05,.05-.08,0-.01,.01-.02,.02-.03,.01-.02,.02-.05,.04-.07l.02-.03s.04-.07,.05-.11c0-.01,.01-.03,.02-.04,0-.02,.02-.05,.03-.07l.02-.06s.01-.03,.02-.05c0-.02,.01-.04,.02-.06,0-.02,.01-.05,.02-.07l.02-.07s0-.02,0-.04c.01-.05,.02-.11,.02-.16,0-.03,.01-.06,.01-.09,0-.06,0-.13,0-.2,0-.02,0-.04,0-.06v-8.74c0-.18-.02-.35-.06-.53-.08-.38-.24-.73-.49-1.04l-2.49-3.15,2.49-3.14c.17-.21,.3-.45,.39-.7h0s.02-.09,.03-.12c0-.02,.01-.03,.02-.05,.03-.11,.05-.21,.07-.32V2.53c0-.92-.49-1.73-1.23-2.17-.33-.2-.72-.32-1.13-.35h-.01s-.08,0-.12,0c.02,0,.04,0,.06,0-.02,0-.04,0-.06,0H2.52Zm2.53,26.9v-5.34l1.2-1.52,5.41,6.85H5.05Zm21.91-5.34v5.34h-6.61l5.41-6.85,1.2,1.52Zm-4.42-5.59h0l-6.52,8.26h0v-.02h-.02v.02h0l-6.52-8.26h0l3.54-4.47,2.99-3.78h0v.02l.02-.02h0l.6,.76,5.93,7.5Zm4.42-10.92v5.34l-1.2,1.52-5.41-6.85h6.61Zm-15.3,0l-5.41,6.85-1.2-1.52V5.05h6.61Z"/></g></g></svg>